<?xml version="1.0" standalone="no"?>
<!DOCTYPE svg PUBLIC "-//W3C//DTD SVG 20010904//EN"
 "http://www.w3.org/TR/2001/REC-SVG-20010904/DTD/svg10.dtd">
<svg version="1.0" xmlns="http://www.w3.org/2000/svg"
 width="548.000000pt" height="461.000000pt" viewBox="0 0 548.000000 461.000000"
 preserveAspectRatio="xMidYMid meet">

<g >
<path transform="translate(80.000000,461.000000) scale(0.100000,-0.100000)"
fill="#05fdd8" stroke="none" d="M723 4370 c-253 -21 -386 -112 -440 -300 -17 -62 -18 -150 -18 -1860
0 -1930 -2 -1868 50 -1985 29 -64 93 -137 148 -167 68 -38 127 -50 224 -46
181 7 298 102 356 288 8 24 13 506 17 1595 l5 1560 343 -1365 c189 -751 364
-1439 388 -1530 84 -311 175 -447 346 -517 78 -31 244 -43 329 -23 181 43 303
186 376 440 15 52 190 741 389 1530 l362 1435 4 -1520 c4 -1385 5 -1526 21
-1582 38 -142 105 -231 209 -279 57 -26 73 -29 173 -29 100 0 116 3 173 29 71
33 137 99 171 171 53 113 51 29 51 1984 0 1978 3 1876 -55 1976 -74 125 -197
179 -451 197 -178 13 -505 -1 -596 -26 -114 -31 -190 -103 -242 -233 -39 -94
-84 -260 -406 -1478 -166 -627 -304 -1151 -308 -1164 -6 -17 -70 212 -236 840
-492 1858 -476 1803 -545 1905 -42 63 -109 108 -189 130 -109 28 -442 41 -649
24z"/>
<path transform="translate(40.000000,461.000000) scale(0.100000,-0.100000)"
fill="#fd2155" stroke="none" d="M723 4370 c-253 -21 -386 -112 -440 -300 -17 -62 -18 -150 -18 -1860
0 -1930 -2 -1868 50 -1985 29 -64 93 -137 148 -167 68 -38 127 -50 224 -46
181 7 298 102 356 288 8 24 13 506 17 1595 l5 1560 343 -1365 c189 -751 364
-1439 388 -1530 84 -311 175 -447 346 -517 78 -31 244 -43 329 -23 181 43 303
186 376 440 15 52 190 741 389 1530 l362 1435 4 -1520 c4 -1385 5 -1526 21
-1582 38 -142 105 -231 209 -279 57 -26 73 -29 173 -29 100 0 116 3 173 29 71
33 137 99 171 171 53 113 51 29 51 1984 0 1978 3 1876 -55 1976 -74 125 -197
179 -451 197 -178 13 -505 -1 -596 -26 -114 -31 -190 -103 -242 -233 -39 -94
-84 -260 -406 -1478 -166 -627 -304 -1151 -308 -1164 -6 -17 -70 212 -236 840
-492 1858 -476 1803 -545 1905 -42 63 -109 108 -189 130 -109 28 -442 41 -649
24z"/>
</g>
</svg>
